<svg width="24" height="24" viewBox="0 0 24 24" fill="none" xmlns="http://www.w3.org/2000/svg">
<path d="M3 5.25C2.58691 5.25 2.25 5.58691 2.25 6C2.25 6.41309 2.58691 6.75 3 6.75H4.27367C4.50311 6.75 4.7031 6.90615 4.75875 7.12873L6.63281 14.625C6.7998 15.293 7.39746 15.75 8.08594 15.75H17.4375C18.1143 15.75 18.6885 15.3018 18.8672 14.6484L20.5526 8.45491C20.6835 7.97388 20.3214 7.5 19.8229 7.5C19.4804 7.5 19.1807 7.73012 19.0922 8.06097L17.5367 13.8791C17.4782 14.0979 17.28 14.25 17.0536 14.25H8.47633C8.24689 14.25 8.0469 14.0939 7.99125 13.8713L6.11719 6.375C5.9502 5.70703 5.35254 5.25 4.66406 5.25H3ZM16.5 15.75C15.2666 15.75 14.25 16.7666 14.25 18C14.25 19.2334 15.2666 20.25 16.5 20.25C17.7334 20.25 18.75 19.2334 18.75 18C18.75 16.7666 17.7334 15.75 16.5 15.75ZM9.75 15.75C8.5166 15.75 7.5 16.7666 7.5 18C7.5 19.2334 8.5166 20.25 9.75 20.25C10.9834 20.25 12 19.2334 12 18C12 16.7666 10.9834 15.75 9.75 15.75ZM12.75 5.25C12.3358 5.25 12 5.58579 12 6V7.3C12 7.41046 11.9105 7.5 11.8 7.5H10.5C10.0858 7.5 9.75 7.83579 9.75 8.25C9.75 8.66421 10.0858 9 10.5 9H11.8C11.9105 9 12 9.08954 12 9.2V10.5C12 10.9142 12.3358 11.25 12.75 11.25C13.1642 11.25 13.5 10.9142 13.5 10.5V9.2C13.5 9.08954 13.5895 9 13.7 9H15C15.4142 9 15.75 8.66421 15.75 8.25C15.75 7.83579 15.4142 7.5 15 7.5H13.7C13.5895 7.5 13.5 7.41046 13.5 7.3V6C13.5 5.58579 13.1642 5.25 12.75 5.25ZM9.75 17.25C10.1719 17.25 10.5 17.5781 10.5 18C10.5 18.4219 10.1719 18.75 9.75 18.75C9.32812 18.75 9 18.4219 9 18C9 17.5781 9.32812 17.25 9.75 17.25ZM16.5 17.25C16.9219 17.25 17.25 17.5781 17.25 18C17.25 18.4219 16.9219 18.75 16.5 18.75C16.0781 18.75 15.75 18.4219 15.75 18C15.75 17.5781 16.0781 17.25 16.5 17.25Z" 
	fill="white"/>
</svg>
