<svg width="24" height="24" viewBox="0 0 24 24" fill="none" xmlns="http://www.w3.org/2000/svg">
<path fill-rule="evenodd" clip-rule="evenodd" d="M11.897 1.2C9.8374 1.2 8.14697 2.89043 8.14697 4.95V5.7H6.33451C5.27358 5.7 4.39725 6.52842 4.33767 7.58767L3.71892 18.5877C3.6544 19.7346 4.56704 20.7 5.71576 20.7H18.0782C19.2269 20.7 20.1395 19.7346 20.075 18.5877L19.4563 7.58767C19.3967 6.52842 18.5204 5.7 17.4594 5.7H15.647V4.95C15.647 2.89043 13.9565 1.2 11.897 1.2ZM14.147 4.95C14.147 3.70781 13.1392 2.7 11.897 2.7C10.6548 2.7 9.64697 3.70781 9.64697 4.95V5.7H14.147V4.95ZM8.14697 7.2H6.7969C6.26584 7.2 5.8274 7.61512 5.7984 8.14539L5.25152 18.1454C5.22019 18.7183 5.67629 19.2 6.25003 19.2H17.5439C18.1177 19.2 18.5738 18.7183 18.5424 18.1454L17.9955 8.14539C17.9665 7.61512 17.5281 7.2 16.997 7.2H15.647V8.7C15.647 9.11421 15.3112 9.45 14.897 9.45C14.4828 9.45 14.147 9.11421 14.147 8.7V7.2H9.64697V8.7C9.64697 9.11421 9.31119 9.45 8.89697 9.45C8.48276 9.45 8.14697 9.11421 8.14697 8.7V7.2Z" fill="white"/>
</svg>
